#!OML:ASF E:/inclinewalkrobotboard/Project1/Captureday1/Session1/subject1.ASF
:FULLY-SPECIFIED
:DEGREES
88
root 0 0 0 -2.2590615279154003 -4.308214735981839 -5.115990674910165
lowerback 10.467790433744296 1.5966699157355637 3.9343559112807425
upperback 0.5271370150542931 2.671519130990391 1.6567084889088006
thorax -5.196447366126887 1.2474000289620355 -0.847918827450931
lowerneck -16.85949588747539 -3.1396349065433102 -1.7281618883225827
upperneck 19.189163366979113 -4.023028940326469 0.6493768462512666
head 8.855180568493553 -1.9394899570768227 -0.005243633896179212
rclavicle -4.0202098106520874E-16 -3.405255408452219E-16
rhumerus -29.94620365482228 -18.82213747695807 -78.2320865951405
rradius 25.88909159135401
rwrist 4.21285493514775
rhand -17.540900378650676 23.113006835939892
rfingers 7.125020000000033
rthumb 8.700951880238758 -6.716071065329562
lclavicle -6.378737396780426E-16 -1.9150174407441484E-16
lhumerus -30.382406324369974 -1.4199168561494453 82.29222077353951
lradius 32.147370506986746
lwrist 5.65154530102484
lhand -25.674761134048055 23.8495862867509
lfingers 7.124001230721303
lthumb 0.8477333909564262 53.501309466593575
rfemur -19.13406968328271 1.8820510103057089 22.623876644477775
rtibia 57.444918642803536
rfoot 0.5960868544537785 -5.152269076400032
rtoes 8.17189997435647
lfemur 1.1003718528349982 -3.5670994749444187 -25.225632121853366
ltibia 17.98002610173808
lfoot -16.090588144184885 1.7268886672246406
ltoes -3.1700545530309783
89
root 0 0 0 -2.2862641963159933 -3.823029111861869 -4.778776596866776
lowerback 10.47491528065258 1.4128427769409106 3.557137172758315
upperback 0.49854686955355376 2.3867335599853043 1.6928518446061664
thorax -5.231939184529635 1.1175852976359422 -0.5587942703404943
lowerneck -17.019256433123367 -3.100053228195102 -1.6941960407913825
upperneck 19.33176627008476 -3.9492385106054524 0.5314196275371268
head 8.921612478880652 -1.9089906460831678 -0.04508461354169224
rclavicle -3.823427736146239E-16 -3.4936687061677905E-16
rhumerus -30.235849225906925 -19.095157433019203 -78.28649724775751
rradius 25.623236304563864
rwrist 4.15789903295821
rhand -17.493453265881776 23.321362686158647
rfingers 7.125020000000036
rthumb 8.74441169227049 -6.51177918786345
lclavicle -6.377985281242636E-16 -1.9503047127009697E-16
lhumerus -30.45332576628929 -1.3499247843112094 82.29874832755814
lradius 32.00116970789733
lwrist 5.636900642767367
lhand -25.71376208289169 23.823855834997673
lfingers 7.1240262889058625
lthumb 0.8092758085297422 53.48962114556331
rfemur -19.960925924542074 1.9231187545859685 22.1144190125179
rtibia 57.274449373764774
rfoot 0.561013788980862 -5.425122625223852
rtoes 7.765318686604897
lfemur 2.219897784646763 -3.470886186505159 -25.71312142865256
ltibia 18.389683373730684
lfoot -15.941309574071033 1.1244127836620166
ltoes -3.427906671853566
90
root 0 0 0 -2.314504640092524 -3.4353446659942293 -4.448078266890071
lowerback 10.477861524424323 1.243361565696651 3.1892534889944173
upperback 0.4838044213351953 2.121261607985107 1.7151137176850346
thorax -5.250984064392908 0.9963797837008941 -0.2921970557215444
lowerneck -17.110347966445865 -3.0627780810054177 -1.6856603432228194
upperneck 19.422830319510894 -3.8831321457459453 0.4554491329297772
head 8.963134804519939 -1.8817915208077127 -0.06661126326088418
rclavicle -3.7247876749968536E-16 -3.557052796865321E-16
rhumerus -30.366395868779655 -19.21535639987769 -78.31319006427731
rradius 25.502643509298547
rwrist 4.132447070517531
rhand -17.471368298864196 23.415061607467845
rfingers 7.125020000000037
rthumb 8.764562026217499 -6.420273250381339
lclavicle -6.377164964913391E-16 -1.9843239530179394E-16
lhumerus -30.452887937567027 -1.3495504373142886 82.29959159541471
lradius 32.000747331168924
lwrist 5.639678211421483
lhand -25.713543815702252 23.826692502530097
lfingers 7.1240357066883515
lthumb 0.8102334389763186 53.49026080940771
rfemur -20.490347980730398 1.9098979255076811 21.795697708725825
rtibia 57.37416843967891
rfoot 0.633889792293834 -5.563434583432864
rtoes 7.592123698742864
lfemur 2.93388370897401 -3.42911890001667 -26.008785010373494
ltibia 18.531557462865514
lfoot -15.975792402170645 0.8620238341756181
ltoes -3.6152059249711623
91
root 0 0 0 -2.3526398691480717 -2.9442493767062317 -4.002132319791351
lowerback 10.47962313949098 1.0191210460877085 2.6941873450665623
upperback 0.4685601372809072 1.7688010988736704 1.7405680579226335
thorax -5.27148918780586 0.8353807993073965 0.06124615095314917
lowerneck -17.21135242208738 -3.013122373988949 -1.6819212168626132
upperneck 19.527349271241548 -3.796486943805119 0.3665225258224005
head 9.011134340233943 -1.846083584376114 -0.08952944785645789
rclavicle -3.659125868470823E-16 -3.5990712360039784E-16
rhumerus -30.438573296456404 -19.282016692215308 -78.32641388224181
rradius 25.43755709928104
rwrist 4.119491743495041
rhand -17.45925849705556 23.46575958464501
rfingers 7.125020000000038
rthumb 8.775434248950049 -6.370748436484352
lclavicle -6.406136265560667E-16 -2.0159529330268197E-16
lhumerus -30.43560440739242 -1.3684606724379655 82.29853727725902
lradius 32.03671056792783
lwrist 5.644210043590077
lhand -25.70164513050495 23.833939787972902
lfingers 7.124030635424073
lthumb 0.8219898839753998 53.49257127978917
rfemur -20.988877146677535 1.8630863701241092 21.511116061054096
rtibia 57.6381586540391
rfoot 0.781300178831378 -5.662988309195786
rtoes 7.516099673060119
lfemur 3.41157103481021 -3.389926800846581 -26.19092729748682
ltibia 18.718683788277477
lfoot -15.973880126479555 0.6652279875437257
ltoes -3.767651175113242
92
root 0 0 0 -2.4043161475288377 -2.3345653749195066 -3.3944215506688655
lowerback 10.47896734344193 0.722596329450161 2.021218972809913
upperback 0.454609925156781 1.3000256509238965 1.767138376077925
thorax -5.290785637194443 0.6209860739671691 0.5317579846748494
lowerneck -17.3146851021531 -2.9484288209466865 -1.6902226327774539
upperneck 19.640573860948777 -3.6855438853018527 0.2704267642724174
head 9.062874908375779 -1.8004986522208553 -0.11008592170913545
rclavicle -3.624799859153397E-16 -3.62662304307052E-16
rhumerus -30.450107358264525 -19.291924514334234 -78.32740803791818
rradius 25.429120115945185
rwrist 4.118706886719552
rhand -17.457089016644247 23.472438577727424
rfingers 7.125020000000038
rthumb 8.777013377919928 -6.3643961936604825
lclavicle -6.450378034225449E-16 -2.048128864072632E-16
lhumerus -30.38589099325571 -1.4209903726756643 82.2945316862726
lradius 32.14012787113773
lwrist 5.655203326931281
lhand -25.670511021441826 23.85286025157953
lfingers 7.12400856402759
lthumb 0.8524210467336939 53.49964123850136
rfemur -21.339757529026805 1.8588902698872323 21.303487815253263
rtibia 57.68183592447298
rfoot 0.8153686185385443 -5.760892104943976
rtoes 7.409846838803134
lfemur 3.661344371994284 -3.354487954521531 -26.266101780799037
ltibia 18.939123364233932
lfoot -15.93745717095593 0.5327735751687737
ltoes -3.880385268802793
93
root 0 0 0 -2.4744149210522224 -1.635482297525213 -2.5674147984689037
lowerback 10.471999353327167 0.34024450291774366 1.1088267420575453
upperback 0.44836312532323985 0.6893666723996275 1.7855578721492322
thorax -5.299342073826635 0.34101521889333786 1.1473557140995565
lowerneck -17.387700642536615 -2.8687787770596276 -1.7291185330911505
upperneck 19.73894251108502 -3.5519085640989934 0.19302246554417124
head 9.104744918639224 -1.7463812798486635 -0.11578151876511811
rclavicle -3.6269208248074667E-16 -3.6382486902927853E-16
rhumerus -30.395651963633874 -19.238981238733935 -78.31521352596621
rradius 25.482839418937733
rwrist 4.131042765003738
rhand -17.46572640238506 23.430821548524197
rfingers 7.125020000000037
rthumb 8.768524484401826 -6.405371337411985
lclavicle -6.519368693228752E-16 -2.0791776796163543E-16
lhumerus -30.28799673476987 -1.5261122841610621 82.28694475018561
lradius 32.345778610479954
lwrist 5.675797490658129
lhand -25.60921089680698 23.889538884050502
lfingers 7.123959509625422
lthumb 0.9116106299501716 53.51476280567047
rfemur -21.47860404412213 1.9571768522960182 21.19467080343526
rtibia 57.188725753325016
rfoot 0.5929308628489203 -5.893460247491467
rtoes 7.163187443258475
lfemur 3.7673145398518724 -3.3305034091147725 -26.278374238391745
ltibia 19.112369694096373
lfoot -15.920029143180283 0.4786510005966562
ltoes -3.9570244347642167
94
root 0 0 0 -2.604542916885122 -0.7183729818785416 -1.0141646417883994
lowerback 10.442146442477934 -0.3137768619498943 -0.5937538313853721
upperback 0.4740949481400998 -0.37482535493274494 1.7670697058697753
thorax -5.262891639953047 -0.14910665777242715 2.2298515044268488
lowerneck -17.32415896550942 -2.746693751499481 -1.8852854621030568
upperneck 19.763148462831715 -3.3560720532333472 0.20833511018453965
head 9.09737949502998 -1.66972060826589 -0.05973689932682413
rclavicle -3.739874775761567E-16 -3.578130562292177E-16
rhumerus -30.14131273958001 -18.997795610831893 -78.25991847559744
rradius 25.725165069039182
rwrist 4.184459155144816
rhand -17.507970229591805 23.24198668216541
rfingers 7.125020000000035
rthumb 8.728832827904323 -6.59029898465721
lclavicle -6.672838785468249E-16 -2.0864645716534725E-16
lhumerus -30.033642437668124 -1.8084389196626596 82.26900586352026
lradius 32.88795575933823
lwrist 5.725591928667326
lhand -25.44609252814113 23.98312915207628
lfingers 7.123813391827631
lthumb 1.0663465357763826 53.55697632051657
rfemur -20.8626106088611 2.5280690356625453 21.432037108070606
rtibia 54.15560505325597
rfoot -0.7950639290316346 -6.249505557308843
rtoes 6.182345017343761
lfemur 3.6761587791073946 -3.3132194250001783 -26.195848317013553
ltibia 19.291178266975532
lfoot -15.897035718928228 0.5037100585823167
ltoes -4.000542333402379
